<?xml version="1.0" encoding="UTF-8"?>
<svg id="Capa_2" data-name="Capa 2" xmlns="http://www.w3.org/2000/svg" viewBox="0 0 330.09 67.64">
  <defs>
    <style>
      .cls-1 {
        fill: #e0df00;
      }

      .cls-1, .cls-2, .cls-3 {
        fill-rule: evenodd;
      }

      .cls-4 {
        fill: none;
        stroke: #fff;
        stroke-linecap: round;
        stroke-linejoin: round;
        stroke-width: .23px;
      }

      .cls-5, .cls-2 {
        fill: #fff;
      }

      .cls-3 {
        fill: #989400;
      }
    </style>
  </defs>
  <g id="Capa_1-2" data-name="Capa 1">
    <g>
      <path class="cls-5" d="M34.7,46.01c.1-.68.2-1.37.32-2.05.66-3.75,2.37-6.98,4.97-9.73,2.69-2.85,5.9-4.87,9.73-5.78,8.62-2.04,17.39.62,22.79,8.63.05.07.09.13.19.29.03-.85-.06-1.57-.2-2.29-1.12-6.18-4.31-10.95-9.72-14.19-.83-.5-1.7-.91-2.6-1.27-.81-.32-1.16-1.02-.88-1.73.28-.71,1.03-.99,1.83-.65,7.02,2.97,11.52,8.16,13.49,15.51.82,3.06.91,6.18.35,9.3-.09.52.09.97.18,1.44,2.49,12.45-5.93,21.39-14.74,23.48-5.76,1.36-11.33.77-16.41-2.48-4.67-3-7.78-7.17-8.91-12.68-.13-.64-.2-1.3-.3-1.95-.01-.08.03-.17-.08-.21v-3.62ZM57.25,30.57s.1.03.15.05c4.49,1.74,7.15,6.75,6.07,11.45-.97,4.24-4.46,6.99-8.59,6.76-4.96-.27-7.33-4.32-6.89-7.85.39-3.13,2.97-5.41,6.13-5.25,3.08.15,5.19,2.7,4.75,5.74-.37,2.58-3.02,4.2-5.47,3.35-.46-.16-.81-.44-.93-.94-.11-.47,0-.9.35-1.23.38-.37.83-.45,1.32-.28.71.24,1.34.11,1.83-.46.74-.87.45-2.44-.58-3.15-1.36-.93-3.37-.47-4.32,1-1.26,1.95-.44,4.82,1.69,5.93,2.55,1.34,5.82.42,7.37-2.07,2.16-3.46.71-8.38-3.04-10.31-4.45-2.29-10.2-.47-12.64,4-2.76,5.05-1.35,11.81,3.31,15.37,3.64,2.79,7.82,3.56,12.22,2.54,6.57-1.52,10.51-5.79,12.19-12.26.07-.3.06-.57-.05-.85-2.21-5.76-6.31-9.47-12.23-11.16-.87-.25-1.76-.42-2.66-.37M73.01,48.26c-.18.12-.22.29-.3.43-.93,1.7-2.08,3.23-3.53,4.52-4.61,4.14-9.97,5.71-16.07,4.58-3.37-.62-6.29-2.14-8.64-4.68-4.42-4.79-5.23-11.94-1.97-17.54.04-.07.16-.14.04-.27-.08.08-.17.14-.25.22-4.49,4.45-5.91,9.86-4.67,15.93,1.18,5.72,4.78,9.63,9.98,12.07,3.52,1.65,7.27,1.83,11.08,1.2,5.99-.99,11.5-5.68,13.45-11.43.55-1.62.81-3.3.87-5.03"/>
      <path class="cls-2" d="M53.06,24.04S34,19.58,42.05.12c0,0,18.41,3.97,11.48,22.84l-.47,1.08Z"/>
      <path class="cls-4" d="M53.06,24.04S34,19.58,42.05.12c0,0,18.41,3.97,11.48,22.84l-.47,1.08Z"/>
      <path class="cls-3" d="M53.03,23.97s-19.4,2.67-18.86-18.39c0,0,18.62-2.9,18.9,17.21l-.04,1.18Z"/>
      <path class="cls-1" d="M53.06,24.04S34,19.58,42.05.12c0,0,18.41,3.97,11.48,22.84l-.47,1.08Z"/>
      <path class="cls-5" d="M0,29.34h15.61c7.14,0,14.43,1.71,14.43,10.23,0,3.23-1.61,6.41-4.84,7.43v.3c4.01,1.41,6.56,4.35,6.56,8.75,0,7.58-7.04,10.18-13.5,10.18H0V29.34ZM13.65,43.53c1.96,0,4.16-.19,4.16-2.73,0-2.74-2.49-2.55-4.45-2.55h-.93v5.29h1.22ZM12.43,57.42h1.51c2.2,0,5.38-.05,5.38-3.09s-3.42-3.03-5.57-3.03h-1.32v6.11Z"/>
      <path class="cls-5" d="M80.05,29.34h12.86l12.04,20.45h.39c-.54-3.08-1.12-6.26-1.12-9.39v-11.06h12.81v36.88h-12.81l-11.79-19.37h-.39c.44,2.55.83,4.94.83,7.39v11.98h-12.82V29.34Z"/>
      <path class="cls-5" d="M127.37,29.34h13.79l5.09,19.37h.34c.25-1.61.49-3.32.93-4.89l4.16-14.48h13.65l6.07,36.88h-12.96l-1.82-20.2h-.24c-.25,1.22-.49,2.5-.88,3.67l-5.33,16.53h-7.82l-4.8-15.6c-.39-1.56-.74-3.03-.83-4.6h-.44c-.1,1.47-.19,2.99-.34,4.45l-1.56,15.75h-12.96l5.97-36.88Z"/>
      <polygon class="cls-5" points="175.72 29.34 200.52 29.34 200.52 39.42 189.22 39.42 189.22 42.94 199.54 42.94 199.54 52.53 189.22 52.53 189.22 56.15 200.91 56.15 200.91 66.22 175.72 66.22 175.72 29.34"/>
      <path class="cls-5" d="M208.65,53.02l.68.54c2.4,1.85,5.28,3.38,8.37,3.38,1.31,0,3.42-.54,3.42-2.21s-1.76-1.81-2.99-2.05l-2.69-.49c-5.23-.93-9.63-4.01-9.63-9.78,0-8.76,7.97-13.65,15.99-13.65,4.21,0,8.07,1.02,11.69,3.22l-3.62,9.44c-2.3-1.57-4.89-2.79-7.78-2.79-1.17,0-2.89.44-2.89,1.96,0,1.36,1.67,1.57,2.69,1.81l3.04.69c5.67,1.27,9.78,4.3,9.78,10.56,0,8.8-8.03,13.16-16,13.16-4.65,0-10.02-1.27-14.18-3.38l4.11-10.42Z"/>
      <polygon class="cls-5" points="236.35 29.34 264.52 29.34 264.52 41.33 257.13 40.99 257.13 66.22 243.74 66.22 243.74 40.99 236.35 41.33 236.35 29.34"/>
      <path class="cls-5" d="M268.05,29.34h16.2c8.31,0,15.35,3.52,15.35,12.82,0,5.58-2.15,7.92-7.14,9.59v.29c.68.54,1.52,1.12,2.25,2.2l8.02,11.98h-15.46l-5.87-11.84h-.24v11.84h-13.11V29.34ZM281.16,45.68h.93c2.19,0,4.4-.34,4.4-3.08s-2-3.18-4.3-3.18h-1.03v6.26Z"/>
      <polygon class="cls-5" points="304.9 29.34 329.7 29.34 329.7 39.42 318.41 39.42 318.41 42.94 328.72 42.94 328.72 52.53 318.41 52.53 318.41 56.15 330.09 56.15 330.09 66.22 304.9 66.22 304.9 29.34"/>
    </g>
  </g>
</svg>