<?xml version="1.0" encoding="UTF-8"?>
<svg id="Capa_2" data-name="Capa 2" xmlns="http://www.w3.org/2000/svg" viewBox="0 0 211.94 42.36">
  <defs>
    <style>
      .cls-1 {
        fill: #e0df00;
      }

      .cls-1, .cls-2 {
        fill-rule: evenodd;
      }

      .cls-2 {
        fill: #989400;
      }
    </style>
  </defs>
  <g id="Capa_1-2" data-name="Capa 1">
    <path d="M0,18.29h10.02c4.59,0,9.27,1.1,9.27,6.57,0,2.07-1.04,4.11-3.11,4.78v.19c2.57.91,4.21,2.79,4.21,5.62,0,4.87-4.52,6.54-8.67,6.54H0v-23.69ZM8.76,27.4c1.26,0,2.67-.12,2.67-1.76,0-1.76-1.6-1.63-2.86-1.63h-.6v3.39h.78ZM7.98,36.33h.97c1.41,0,3.46-.03,3.46-1.98s-2.2-1.95-3.58-1.95h-.85v3.93Z"/>
    <path d="M50.92,18.3h8.26l7.73,13.13h.25c-.35-1.98-.72-4.02-.72-6.03v-7.1h8.23v23.69h-8.23l-7.57-12.44h-.25c.29,1.63.53,3.17.53,4.74v7.69h-8.23v-23.69Z"/>
    <path d="M80.68,18.3h8.86l3.27,12.44h.22c.16-1.04.31-2.14.6-3.14l2.67-9.3h8.77l3.9,23.69h-8.33l-1.16-12.97h-.16c-.16.79-.31,1.6-.56,2.36l-3.42,10.62h-5.03l-3.08-10.02c-.25-1-.47-1.95-.53-2.95h-.28c-.06.94-.12,1.92-.22,2.86l-1,10.11h-8.33l3.83-23.69Z"/>
    <polygon points="111.13 18.3 127.06 18.3 127.06 24.77 119.8 24.77 119.8 27.03 126.43 27.03 126.43 33.19 119.8 33.19 119.8 35.51 127.31 35.51 127.31 41.98 111.13 41.98 111.13 18.3"/>
    <path d="M132.12,33.5l.44.35c1.54,1.19,3.39,2.17,5.37,2.17.85,0,2.2-.35,2.2-1.41s-1.13-1.16-1.91-1.32l-1.73-.31c-3.36-.6-6.19-2.57-6.19-6.28,0-5.62,5.12-8.77,10.27-8.77,2.7,0,5.19.66,7.51,2.07l-2.32,6.07c-1.48-1.01-3.14-1.79-5-1.79-.75,0-1.85.28-1.85,1.26,0,.88,1.07,1,1.73,1.16l1.95.44c3.65.82,6.28,2.76,6.28,6.79,0,5.65-5.15,8.45-10.27,8.45-2.99,0-6.44-.82-9.11-2.17l2.64-6.69Z"/>
    <polygon points="151.04 18.3 169.14 18.3 169.14 25.99 164.4 25.77 164.4 41.98 155.79 41.98 155.79 25.77 151.04 25.99 151.04 18.3"/>
    <path d="M171.32,18.3h10.4c5.34,0,9.86,2.26,9.86,8.23,0,3.58-1.38,5.09-4.59,6.16v.19c.44.34.97.72,1.44,1.41l5.15,7.69h-9.93l-3.77-7.6h-.16v7.6h-8.42v-23.69ZM179.73,28.79h.6c1.41,0,2.83-.22,2.83-1.98s-1.29-2.04-2.76-2.04h-.66v4.02Z"/>
    <polygon points="195.76 18.3 211.69 18.3 211.69 24.77 204.44 24.77 204.44 27.03 211.07 27.03 211.07 33.19 204.44 33.19 204.44 35.51 211.94 35.51 211.94 41.98 195.76 41.98 195.76 18.3"/>
    <path class="cls-2" d="M34.68,15.31s-12.46,1.72-12.11-11.8c0,0,11.95-1.86,12.13,11.05l-.03.76Z"/>
    <path class="cls-1" d="M34.7,15.36s-12.24-2.86-7.08-15.36c0,0,11.83,2.55,7.37,14.66l-.3.7Z"/>
    <path d="M36.87,36.38c-1.42,0-2.85-.27-4.21-.8-4.81-1.89-7.19-7.34-5.3-12.15,1.54-3.93,6-5.87,9.93-4.33,3.23,1.26,4.82,4.92,3.56,8.15-1.04,2.66-4.07,3.98-6.73,2.94-2.21-.87-3.31-3.38-2.44-5.59.73-1.85,2.83-2.77,4.67-2.04,1.57.61,2.34,2.39,1.72,3.95-.25.64-.74,1.15-1.38,1.43-.64.28-1.34.29-1.99.04-.41-.16-.61-.62-.45-1.03.16-.41.62-.61,1.03-.45.25.1.52.09.77-.02.25-.11.44-.3.53-.55.29-.75-.08-1.59-.82-1.89-1.04-.4-2.21.11-2.61,1.14-.55,1.39.14,2.97,1.54,3.52,1.84.72,3.94-.19,4.66-2.04.94-2.41-.25-5.14-2.66-6.09-3.11-1.22-6.64.32-7.87,3.43-1.57,4,.41,8.52,4.41,10.09,2.47.97,5.17.92,7.6-.14,2.43-1.06,4.3-3,5.27-5.48,1.23-3.14,1.17-6.56-.18-9.65-1.35-3.09-3.82-5.47-6.95-6.69-.41-.16-.61-.62-.45-1.03.16-.41.62-.61,1.03-.45,3.53,1.39,6.31,4.06,7.83,7.54,1.52,3.48,1.59,7.34.2,10.87-1.12,2.87-3.3,5.12-6.12,6.35-1.48.65-3.04.97-4.6.97"/>
    <path d="M35.86,42.31c-3.56,0-6.62-1.22-9.09-3.63-2.48-2.42-3.74-5.39-3.74-8.85s1.26-6.46,3.74-8.87c2.47-2.41,5.54-3.63,9.09-3.63s6.64,1.22,9.12,3.63c2.49,2.41,3.76,5.4,3.76,8.87s-1.26,6.44-3.76,8.85c-2.49,2.41-5.55,3.62-9.12,3.62M35.86,18.93c-3.17,0-5.78,1.04-7.98,3.18-2.19,2.13-3.26,4.66-3.26,7.73s1.07,5.58,3.26,7.71c2.2,2.14,4.81,3.18,7.98,3.18s5.81-1.04,8.01-3.18c2.2-2.13,3.28-4.65,3.28-7.71s-1.07-5.6-3.28-7.73c-2.21-2.14-4.83-3.18-8.01-3.18"/>
  </g>
</svg>